<svg width="140" height="63" viewBox="0 0 140 63" fill="none" xmlns="http://www.w3.org/2000/svg">
<path d="M119 63H140L70 0L0 63H21L70 18.83L119 63ZM35 12.67V0H14V31.5L35 12.67Z" fill="#5D91DD"/>
<path d="M53.76 29.94V19.47C53.76 17.7 52.47 17.13 52.47 17.13C52.47 17.13 53.76 16.8 53.76 14.94V6.42C53.76 5.34 53.4 4.35 52.41 3.6C51.45 2.82 50.37 2.52 48.78 2.52C46.05 2.52 43.8 2.52 43.8 2.52V29.94C43.8 29.94 45.27 29.94 47.55 29.94V18.6C49.44 18.57 50.01 18.96 50.01 19.98C50.01 20.97 50.01 29.04 50.01 29.94H53.76ZM50.01 14.43C50.01 15.69 49.23 15.72 47.55 15.72V5.13H48.78C49.11 5.13 49.41 5.22 49.65 5.4C49.89 5.58 50.01 5.82 50.01 6.09C50.01 6.09 49.98 12.18 50.01 14.43ZM64.7145 26.97H61.0545V17.76H63.4845V14.76H61.0545V5.52H64.7145V2.52H57.3645V29.94H64.7145V26.97ZM70.8422 27.21H73.6622L74.0822 29.94H77.7722L74.0822 2.52H70.4222L66.7322 29.94H70.4222L70.8422 27.21ZM72.2522 12.99L73.2122 24.24H71.2922L72.2522 12.99ZM83.6459 2.52H79.9559V29.94H87.3359V26.94H83.6459V2.52ZM94.8466 29.94V5.49H97.3066V2.52H88.6966V5.49H91.1566V29.94H94.8466Z" fill="white"/>
<path d="M25.24 61.19C26.23 61.97 27.4 62.36 28.78 62.36C30.16 62.36 31.33 61.97 32.29 61.19C33.28 60.41 33.76 59.45 33.76 58.34V50.66H30.01V58.7C30.01 58.97 29.89 59.21 29.65 59.39C29.41 59.57 29.11 59.69 28.78 59.69C28.42 59.69 28.15 59.57 27.91 59.39C27.67 59.21 27.55 58.97 27.55 58.7V37.82C27.55 37.55 27.67 37.31 27.91 37.13C28.15 36.92 28.42 36.83 28.78 36.83C29.11 36.83 29.41 36.92 29.65 37.13C29.89 37.31 30.01 37.55 30.01 37.82V45.86H33.76V38.18C33.76 37.07 33.28 36.11 32.29 35.33C31.33 34.55 30.16 34.16 28.78 34.16C27.4 34.16 26.23 34.55 25.24 35.33C24.28 36.11 23.8 37.07 23.8 38.18V58.34C23.8 59.45 24.28 60.41 25.24 61.19ZM46.9471 58.34V38.18C46.9471 37.07 46.4671 36.11 45.4771 35.33C44.5171 34.55 43.3471 34.16 41.9671 34.16C40.5871 34.16 39.4171 34.55 38.4271 35.33C37.4671 36.11 36.9871 37.07 36.9871 38.18V58.34C36.9871 59.45 37.4671 60.41 38.4271 61.19C39.4171 61.97 40.5871 62.36 41.9671 62.36C43.3471 62.36 44.5171 61.97 45.4771 61.19C46.4671 60.41 46.9471 59.45 46.9471 58.34ZM43.1971 58.7C43.1971 58.97 43.0771 59.21 42.8371 59.39C42.5971 59.57 42.2971 59.69 41.9671 59.69C41.6371 59.69 41.3371 59.57 41.0971 59.39C40.8571 59.21 40.7371 58.97 40.7371 58.7V37.82C40.7371 37.55 40.8571 37.31 41.0971 37.13C41.3371 36.92 41.6371 36.83 41.9671 36.83C42.2971 36.83 42.5971 36.92 42.8371 37.13C43.0771 37.31 43.1971 37.55 43.1971 37.82V58.7ZM60.2786 49.7V61.94H63.9986V34.55H60.2486L57.0386 49.7L53.7686 34.55H50.1086V61.94H53.7686V49.94L55.5386 61.94H58.4486L60.2786 49.7ZM75.8488 35.54C74.8888 34.79 73.8688 34.52 72.2488 34.52C69.5188 34.52 67.2988 34.52 67.2988 34.52V61.91C67.2988 61.91 68.7688 61.91 71.0188 61.91V50.24C73.4788 50.24 77.2588 50.03 77.2588 46.94V38.42C77.2588 37.34 76.8388 36.32 75.8488 35.54ZM73.4788 46.43C73.4788 47.66 72.6988 47.72 71.0188 47.72V37.13H72.2488C72.6088 37.13 72.8788 37.22 73.1488 37.4C73.3888 37.58 73.5088 37.88 73.5088 38.15C73.5088 41.78 73.4788 43.4 73.4788 46.43ZM83.098 59.21H85.918L86.338 61.94H90.028L86.338 34.52H82.678L78.988 61.94H82.678L83.098 59.21ZM84.508 44.99L85.468 56.24H83.548L84.508 44.99ZM102.022 34.52H98.3317V46.4L95.9017 34.52H92.2117V61.94H95.9017V49.91L98.3317 61.94H102.022V34.52ZM112.553 61.91V52.52H112.583L116.663 34.52H112.973L110.693 45.29L108.443 34.52H104.753L108.833 52.52H108.863V61.91H112.553Z" fill="white"/>
</svg>
