<svg width="41" height="42" viewBox="0 0 41 42" fill="none" xmlns="http://www.w3.org/2000/svg">
<path d="M20.7559 10.7507C15.0187 10.7507 10.3885 15.3801 10.3885 21.1163C10.3885 26.8525 15.0187 31.4819 20.7559 31.4819C26.493 31.4819 31.1232 26.8525 31.1232 21.1163C31.1232 15.3801 26.493 10.7507 20.7559 10.7507ZM20.7559 27.8532C17.0457 27.8532 14.0179 24.8259 14.0179 21.1163C14.0179 17.4067 17.0457 14.3794 20.7559 14.3794C24.4661 14.3794 27.4939 17.4067 27.4939 21.1163C27.4939 24.8259 24.4661 27.8532 20.7559 27.8532ZM31.5478 7.91043C30.2083 7.91043 29.1266 8.99197 29.1266 10.3313C29.1266 11.6705 30.2083 12.7521 31.5478 12.7521C32.8873 12.7521 33.9691 11.6756 33.9691 10.3313C33.9695 10.0132 33.9071 9.69826 33.7856 9.40438C33.664 9.11049 33.4857 8.84346 33.2608 8.61858C33.0359 8.39371 32.7688 8.21541 32.4749 8.09389C32.1809 7.97238 31.8659 7.91003 31.5478 7.91043ZM40.9649 21.1163C40.9649 18.3266 40.9902 15.5621 40.8335 12.7774C40.6768 9.54285 39.9388 6.67222 37.5731 4.30699C35.2024 1.9367 32.3364 1.20388 29.1013 1.04721C26.3111 0.89054 23.5461 0.91581 20.7609 0.91581C17.9707 0.91581 15.2057 0.89054 12.4205 1.04721C9.18549 1.20388 6.31438 1.94175 3.94874 4.30699C1.57805 6.67728 0.845107 9.54285 0.688409 12.7774C0.531711 15.5671 0.556984 18.3316 0.556984 21.1163C0.556984 23.901 0.531711 26.6706 0.688409 29.4553C0.845107 32.6898 1.5831 35.5604 3.94874 37.9256C6.31943 40.2959 9.18549 41.0288 12.4205 41.1854C15.2108 41.3421 17.9757 41.3168 20.7609 41.3168C23.5512 41.3168 26.3161 41.3421 29.1013 41.1854C32.3364 41.0288 35.2075 40.2909 37.5731 37.9256C39.9438 35.5554 40.6768 32.6898 40.8335 29.4553C40.9952 26.6706 40.9649 23.9061 40.9649 21.1163ZM36.5167 33.0335C36.1477 33.9533 35.7029 34.6406 34.9901 35.3481C34.2774 36.0607 33.595 36.5055 32.675 36.8744C30.0162 37.9307 23.7028 37.6932 20.7559 37.6932C17.8089 37.6932 11.4905 37.9307 8.83166 36.8795C7.91169 36.5106 7.22424 36.0658 6.51657 35.3532C5.80384 34.6406 5.35902 33.9583 4.99002 33.0385C3.93863 30.3751 4.17621 24.0627 4.17621 21.1163C4.17621 18.1699 3.93863 11.8525 4.99002 9.19413C5.35902 8.27431 5.80384 7.58698 6.51657 6.87943C7.22929 6.17188 7.91169 5.72209 8.83166 5.35315C11.4905 4.30193 17.8089 4.53947 20.7559 4.53947C23.7028 4.53947 30.0213 4.30193 32.6801 5.35315C33.6001 5.72209 34.2875 6.16683 34.9952 6.87943C35.7079 7.59203 36.1527 8.27431 36.5217 9.19413C37.5731 11.8525 37.3355 18.1699 37.3355 21.1163C37.3355 24.0627 37.5731 30.3751 36.5167 33.0335Z" fill="#5D91DD"/>
</svg>
