<svg width="47" height="27" viewBox="0 0 47 27" fill="none" xmlns="http://www.w3.org/2000/svg">
<path d="M45.4417 2.37338C45.7646 1.35083 45.4383 0.601925 43.9019 0.604555L38.8125 0.613265C37.5175 0.615481 36.927 1.26486 36.6034 1.97751C36.6034 1.97751 34.0274 7.95786 30.3682 11.8389C29.1868 12.9684 28.6467 13.3254 28.0015 13.3265C27.679 13.3271 27.2095 12.9718 27.2075 11.9498L27.1889 2.40462C27.1865 1.17823 26.8118 0.633802 25.7326 0.635649L17.7353 0.649336C16.9277 0.650718 16.4414 1.21859 16.4425 1.75926C16.4447 2.91972 18.2786 3.18472 18.473 6.45478L18.4868 13.5494C18.4898 15.1033 18.1956 15.3873 17.5458 15.3884C15.8215 15.3914 11.6139 9.40064 9.11033 2.53886C8.62269 1.2056 8.13196 0.667969 6.83234 0.670194L1.74522 0.678899C0.2901 0.68139 0.00126677 1.33025 0.00265336 2.04235C0.00514409 3.32149 1.7418 9.6483 8.06594 18.0091C12.2823 23.7184 18.2086 26.8073 23.6021 26.798C26.8349 26.7925 27.2327 26.1039 27.2304 24.9171L27.222 20.5961C27.2193 19.2203 27.5274 18.9428 28.5509 18.9411C29.3028 18.9398 30.5985 19.298 33.6232 22.0467C37.0782 25.3068 37.652 26.7718 39.5898 26.7685L44.6769 26.7598C46.1297 26.7573 46.8548 26.0681 46.4344 24.7106C45.9746 23.3597 44.323 21.3954 42.1323 19.0717C40.9415 17.7462 39.1633 16.3207 38.6212 15.6073C37.8652 14.6877 38.0825 14.2807 38.617 13.4622C38.6193 13.4644 44.802 5.18552 45.4417 2.37338Z" fill="#5D91DD"/>
</svg>
