<svg width="144" height="136" viewBox="0 0 144 136" fill="none" xmlns="http://www.w3.org/2000/svg">
<path d="M141.014 66.9082L79.6402 5.56745L75.5264 1.45371C74.5891 0.522584 73.3215 0 72.0003 0C70.6791 0 69.4115 0.522584 68.4742 1.45371L2.98674 66.9082C2.02629 67.8649 1.26723 69.0043 0.754361 70.2592C0.241495 71.5141 -0.0147816 72.859 0.000658363 74.2145C0.0641921 79.8054 4.71804 84.2685 10.309 84.2685H17.0595V136H126.941V84.2685H133.835C136.551 84.2685 139.108 83.2044 141.03 81.2825C141.976 80.3392 142.726 79.2176 143.236 77.9825C143.746 76.7475 144.005 75.4236 144 74.0874C144 71.3873 142.936 68.8301 141.014 66.9082ZM80.895 124.564H63.1056V92.1625H80.895V124.564ZM115.505 72.8326V124.564H91.0604V88.3505C91.0604 84.8403 88.2173 81.9972 84.707 81.9972H59.2935C55.7833 81.9972 52.9402 84.8403 52.9402 88.3505V124.564H28.4955V72.8326H13.2474L72.0162 14.1126L75.6852 17.7816L130.769 72.8326H115.505Z" fill="#162F4B"/>
</svg>
