<svg width="122" height="137" viewBox="0 0 122 137" fill="none" xmlns="http://www.w3.org/2000/svg">
<path d="M120.548 57.1487L107.508 44.1137C107.328 43.933 107.114 43.7897 106.878 43.6919C106.643 43.594 106.39 43.5437 106.135 43.5437C105.88 43.5437 105.627 43.594 105.392 43.6919C105.156 43.7897 104.942 43.933 104.762 44.1137L69.0808 79.7901L69.1519 79.8612L69.0381 79.8296L64.1543 98.0533L64.1685 98.0565C64.0449 98.4134 64.0297 98.7989 64.1249 99.1645C64.2202 99.53 64.4216 99.8591 64.7037 100.11C64.9858 100.361 65.336 100.523 65.7101 100.576C66.0841 100.628 66.4654 100.568 66.8056 100.404L66.8087 100.419L84.8444 95.5854L84.8334 95.5427L84.8634 95.5727L120.546 59.8916C120.909 59.5276 121.113 59.0345 121.113 58.5205C121.114 58.0064 120.91 57.5131 120.548 57.1487ZM70.092 94.5189L72.9928 83.7022L80.9118 91.6211L70.092 94.5189Z" fill="#162F4B"/>
<path d="M95.2645 104.841H83.4398H83.4382C82.9236 104.842 82.4304 105.047 82.0666 105.411C81.7029 105.775 81.4984 106.268 81.498 106.783L81.5012 106.802V120.571H15.7036V23.5957H23.5989V28.4447C23.5957 28.4969 23.5831 28.5443 23.5831 28.598C23.5831 30.1748 24.8629 31.4641 26.4492 31.4641L26.4713 31.4625V31.4752H70.754C71.5135 31.4743 72.2416 31.1723 72.7786 30.6353C73.3156 30.0982 73.6177 29.3701 73.6185 28.6106C73.6185 28.5869 73.6122 28.5648 73.6122 28.5411V23.5957H81.4996V37.3702L81.4964 37.3891C81.496 37.6441 81.5459 37.8967 81.6432 38.1323C81.7406 38.368 81.8834 38.5822 82.0637 38.7626C82.2439 38.9429 82.4579 39.086 82.6935 39.1835C82.9291 39.281 83.1817 39.3311 83.4367 39.3309H95.263C95.7774 39.3305 96.2707 39.126 96.6345 38.7622C96.9982 38.3984 97.2028 37.9052 97.2032 37.3907V16.4083H97.1732C97.1748 16.3309 97.1969 16.2582 97.1969 16.1792C97.1969 13.9824 96.3246 11.8755 94.7719 10.3216C93.2191 8.76762 91.1129 7.89377 88.9161 7.8921C88.8529 7.8921 88.796 7.90948 88.7328 7.91106H65.7327V2.53274C65.7327 1.14076 64.6046 0.0157998 63.2158 0.0126398V0H34.0648V0.00948007C34.0411 0.00948007 34.0206 0.00315977 33.9969 0.00315977C32.6065 0.00315977 31.4783 1.1297 31.4783 2.52168L31.4831 2.56908V7.90948H8.31396L8.28236 7.90632C6.08624 7.90883 3.98081 8.78246 2.42806 10.3355C0.875315 11.8885 0.00209091 13.9941 0 16.1903C0 16.2645 0.0205399 16.3325 0.0221199 16.4067H0V127.91H0.0047389L0 127.953C0.00041485 129.041 0.215025 130.117 0.631576 131.122C1.04813 132.126 1.65846 133.039 2.42771 133.807C3.19697 134.576 4.11008 135.185 5.1149 135.601C6.11972 136.016 7.19657 136.23 8.28394 136.229C8.40718 136.229 8.52252 136.198 8.64576 136.193V136.226H88.4358C88.5906 136.234 88.7375 136.272 88.894 136.272C91.0889 136.271 93.1939 135.399 94.7461 133.847C96.2983 132.296 97.1708 130.191 97.1716 127.996C97.1716 127.966 97.1637 127.939 97.1637 127.909H97.2079V106.781C97.2077 106.526 97.1573 106.274 97.0595 106.038C96.9617 105.803 96.8185 105.589 96.6381 105.409C96.4576 105.228 96.2434 105.085 96.0078 104.988C95.7721 104.891 95.5195 104.841 95.2645 104.841Z" fill="#162F4B"/>
</svg>
