<svg width="145" height="136" viewBox="0 0 145 136" fill="none" xmlns="http://www.w3.org/2000/svg">
<path d="M145 127.5V110.5H40.2778V127.5H145ZM145 76.5V59.5H40.2778V76.5H145ZM40.2778 25.5H145V8.5H40.2778V25.5ZM8.05556 8.5V25.5H24.1667V8.5H8.05556ZM0 8.5C0 6.24566 0.848708 4.08365 2.35942 2.48959C3.87013 0.895535 5.91909 0 8.05556 0H24.1667C26.3031 0 28.3521 0.895535 29.8628 2.48959C31.3735 4.08365 32.2222 6.24566 32.2222 8.5V25.5C32.2222 27.7543 31.3735 29.9163 29.8628 31.5104C28.3521 33.1045 26.3031 34 24.1667 34H8.05556C5.91909 34 3.87013 33.1045 2.35942 31.5104C0.848708 29.9163 0 27.7543 0 25.5V8.5ZM8.05556 59.5V76.5H24.1667V59.5H8.05556ZM0 59.5C0 57.2457 0.848708 55.0837 2.35942 53.4896C3.87013 51.8955 5.91909 51 8.05556 51H24.1667C26.3031 51 28.3521 51.8955 29.8628 53.4896C31.3735 55.0837 32.2222 57.2457 32.2222 59.5V76.5C32.2222 78.7543 31.3735 80.9163 29.8628 82.5104C28.3521 84.1045 26.3031 85 24.1667 85H8.05556C5.91909 85 3.87013 84.1045 2.35942 82.5104C0.848708 80.9163 0 78.7543 0 76.5V59.5ZM8.05556 110.5V127.5H24.1667V110.5H8.05556ZM0 110.5C0 108.246 0.848708 106.084 2.35942 104.49C3.87013 102.896 5.91909 102 8.05556 102H24.1667C26.3031 102 28.3521 102.896 29.8628 104.49C31.3735 106.084 32.2222 108.246 32.2222 110.5V127.5C32.2222 129.754 31.3735 131.916 29.8628 133.51C28.3521 135.104 26.3031 136 24.1667 136H8.05556C5.91909 136 3.87013 135.104 2.35942 133.51C0.848708 131.916 0 129.754 0 127.5V110.5Z" fill="#162F4B"/>
</svg>
